<svg width="24" height="25" viewBox="0 0 24 25" fill="none" xmlns="http://www.w3.org/2000/svg">
<path d="M15 2.78174H9C8.44772 2.78174 8 3.22945 8 3.78174V5.78174C8 6.33402 8.44772 6.78174 9 6.78174H15C15.5523 6.78174 16 6.33402 16 5.78174V3.78174C16 3.22945 15.5523 2.78174 15 2.78174Z" stroke="black" stroke-width="2" stroke-linecap="round" stroke-linejoin="round"/>
<path d="M16 4.78174H18C18.5304 4.78174 19.0391 4.99245 19.4142 5.36752C19.7893 5.7426 20 6.25131 20 6.78174V20.7817C20 21.3122 19.7893 21.8209 19.4142 22.196C19.0391 22.571 18.5304 22.7817 18 22.7817H6C5.46957 22.7817 4.96086 22.571 4.58579 22.196C4.21071 21.8209 4 21.3122 4 20.7817V6.78174C4 6.25131 4.21071 5.7426 4.58579 5.36752C4.96086 4.99245 5.46957 4.78174 6 4.78174H8" stroke="black" stroke-width="2" stroke-linecap="round" stroke-linejoin="round"/>
<path d="M12 11.7817H16" stroke="black" stroke-width="2" stroke-linecap="round" stroke-linejoin="round"/>
<path d="M12 16.7817H16" stroke="black" stroke-width="2" stroke-linecap="round" stroke-linejoin="round"/>
<path d="M8 11.7817H8.01" stroke="black" stroke-width="2" stroke-linecap="round" stroke-linejoin="round"/>
<path d="M8 16.7817H8.01" stroke="black" stroke-width="2" stroke-linecap="round" stroke-linejoin="round"/>
</svg>
