<svg width="30" height="30" viewBox="0 0 30 30" fill="none"
  xmlns="http://www.w3.org/2000/svg">
  <g clip-path="url(#clip0_1904_14559)">
    <circle cx="14.9077" cy="15.1362" r="14.4545" fill="#C101F1"/>
    <path fill-rule="evenodd" clip-rule="evenodd" d="M14.9112 25.9772C20.8987 25.9772 25.7521 21.1238 25.7521 15.1363H14.9112L23.7583 8.8701C21.7938 6.10223 18.5637 4.29541 14.9112 4.29541C8.92378 4.29541 4.07031 9.14888 4.07031 15.1363C4.07031 21.1238 8.92378 25.9772 14.9112 25.9772Z" fill="#7C00AC"/>
    <path fill-rule="evenodd" clip-rule="evenodd" d="M21.5313 15.1357C21.5313 11.4774 18.5652 8.51074 14.9063 8.51074C11.2473 8.51074 8.28125 11.4774 8.28125 15.1357C8.28125 18.7941 11.2473 21.7607 14.9063 21.7607C16.9636 21.7607 18.8016 20.8232 20.0167 19.3517H14.9063V15.1357H21.5313Z" fill="#D7009B"/>
  </g>
  <defs>
    <clipPath id="clip0_1904_14559">
      <rect width="30" height="30" fill="white"/>
    </clipPath>
  </defs>
</svg>
