<svg width="32" height="32" viewBox="0 0 32 32" fill="none"
  xmlns="http://www.w3.org/2000/svg">
  <g clip-path="url(#clip0_1183_3446)">
    <path d="M16.0002 32C7.16382 32 0.000488281 24.8366 0.000488281 16C0.000488281 7.16344 7.16382 0 16.0002 0C24.8367 0 32 7.16344 32 16C32 24.8366 24.8367 32 16.0002 32Z" fill="#9B00D7"></path>
    <g opacity="0.3">
      <path d="M16.0002 28C9.37287 28 4.00036 22.6274 4.00036 16C4.00036 9.37258 9.37287 4 16.0002 4C22.6275 4 28 9.37258 28 16C28 22.6274 22.6275 28 16.0002 28Z" fill="#090809"></path>
    </g>
    <path d="M16.0001 24C11.5819 24 8.00024 20.4183 8.00024 16C8.00024 11.5817 11.5819 8 16.0001 8C20.4183 8 24 11.5817 24 16C24 20.4183 20.4183 24 16.0001 24Z" fill="#D7009B"></path>
  </g>
  <defs>
    <clipPath id="clip0_1183_3446">
      <rect width="32" height="32" fill="white" transform="matrix(-1 0 0 1 32 0)"></rect>
    </clipPath>
  </defs>
</svg>