<svg width="24" height="25" viewBox="0 0 24 25" fill="none" xmlns="http://www.w3.org/2000/svg">
<path d="M9 18.7817H15" stroke="black" stroke-width="2" stroke-linecap="round" stroke-linejoin="round"/>
<path d="M10 22.7817H14" stroke="black" stroke-width="2" stroke-linecap="round" stroke-linejoin="round"/>
<path d="M15.09 14.7817C15.27 13.8017 15.74 13.0417 16.5 12.2817C16.9829 11.8372 17.3662 11.2956 17.6247 10.6923C17.8832 10.0891 18.0111 9.43795 18 8.78174C18 7.19044 17.3679 5.66432 16.2426 4.5391C15.1174 3.41388 13.5913 2.78174 12 2.78174C10.4087 2.78174 8.88258 3.41388 7.75736 4.5391C6.63214 5.66432 6 7.19044 6 8.78174C6 9.78174 6.23 11.0117 7.5 12.2817C8.22405 12.9438 8.718 13.8196 8.91 14.7817" stroke="black" stroke-width="2" stroke-linecap="round" stroke-linejoin="round"/>
</svg>
