<svg width="16" height="17" viewBox="0 0 16 17" fill="none"
  xmlns="http://www.w3.org/2000/svg">
  <path d="M2.0026 14.7814C4.0026 14.7814 6.66927 14.1148 6.66927 9.4481V4.11477C6.66927 3.28143 6.16527 2.7701 5.33594 2.78143H2.66927C1.83594 2.78143 1.33594 3.28143 1.33594 4.0961V8.11477C1.33594 8.9481 1.83594 9.4481 2.66927 9.4481C3.33594 9.4481 3.33594 9.4481 3.33594 10.1148V10.7814C3.33594 11.4481 2.66927 12.1148 2.0026 12.1148C1.33594 12.1148 1.33594 12.1201 1.33594 12.8021V14.1148C1.33594 14.7814 1.33594 14.7814 2.0026 14.7814Z" fill="#7C00AC"/>
  <path d="M10.0026 14.7814C12.0026 14.7814 14.6693 14.1148 14.6693 9.4481V4.11477C14.6693 3.28143 14.1646 2.7701 13.3359 2.78143H10.6693C9.83594 2.78143 9.33594 3.28143 9.33594 4.0961V8.11477C9.33594 8.9481 9.83594 9.4481 10.6693 9.4481H11.1693C11.1693 10.9481 11.3359 12.1148 9.33594 12.1148V14.1148C9.33594 14.7814 9.33594 14.7814 10.0026 14.7814Z" fill="#7C00AC"/>
</svg>