<svg width="24" height="25" viewBox="0 0 24 25" fill="none"
  xmlns="http://www.w3.org/2000/svg">
  <path d="M21 2.78174V8.78174H15" stroke="#090809" stroke-width="2" stroke-linecap="round" stroke-linejoin="round"/>
  <path d="M3 12.7814C3.00158 11.0447 3.5056 9.34554 4.45125 7.88889C5.39691 6.43225 6.74382 5.28032 8.32951 4.57204C9.9152 3.86377 11.6719 3.6294 13.3879 3.89721C15.1038 4.16502 16.7056 4.92357 18 6.08136L21 8.78136" stroke="#090809" stroke-width="2" stroke-linecap="round" stroke-linejoin="round"/>
  <path d="M3 22.7817V16.7817H9" stroke="#090809" stroke-width="2" stroke-linecap="round" stroke-linejoin="round"/>
  <path d="M21 12.7817C20.9984 14.5184 20.4944 16.2176 19.5487 17.6742C18.6031 19.1308 17.2562 20.2828 15.6705 20.9911C14.0848 21.6993 12.3281 21.9337 10.6121 21.6659C8.89623 21.3981 7.29445 20.6395 6 19.4817L3 16.7817" stroke="#090809" stroke-width="2" stroke-linecap="round" stroke-linejoin="round"/>
</svg>
